<svg width="390" height="46" viewBox="0 0 390 46" fill="none" xmlns="http://www.w3.org/2000/svg">
<path d="M0.84 0.199997H27.72C32.2 0.199997 35.4427 1.224 37.448 3.272C39.496 5.27733 40.52 8.52 40.52 13V18.76C40.52 22.3013 39.9227 25.0533 38.728 27.016C37.576 28.9787 35.72 30.28 33.16 30.92L41.16 45H28.68L21.32 31.56H12.36V45H0.84V0.199997ZM29 13C29 10.44 27.72 9.16 25.16 9.16H12.36V22.6H25.16C27.72 22.6 29 21.32 29 18.76V13ZM85.9425 45H74.4225V26.76H58.4225V45H46.9025V0.199997H58.4225V17.8H74.4225V0.199997H85.9425V45ZM88.5325 0.199997H100.693L111.253 21.96L121.812 0.199997H133.973L117.013 33.16V45H105.493V33.16L88.5325 0.199997ZM158.288 45H146.768V9.16H133.328V0.199997H171.728V9.16H158.288V45ZM215.255 45H203.735V26.76H187.735V45H176.215V0.199997H187.735V17.8H203.735V0.199997H215.255V45ZM261.365 20.04L252.405 36.04H243.445L234.485 20.04V45H222.965V0.199997H235.125L247.925 23.88L260.725 0.199997H272.885V45H261.365V20.04ZM301.71 45H278.67V36.04H284.43V9.16H278.67V0.199997H301.71V9.16H295.95V36.04H301.71V45ZM342.025 44.36C332.51 45.2133 324.617 45.64 318.345 45.64C314.164 45.64 311.092 44.6587 309.129 42.696C307.166 40.7333 306.185 37.6613 306.185 33.48V13C306.185 8.52 307.188 5.27733 309.193 3.272C311.241 1.224 314.505 0.199997 318.985 0.199997H342.025V9.16H321.545C318.985 9.16 317.705 10.44 317.705 13V33.48C317.705 34.4613 317.982 35.2507 318.537 35.848C319.134 36.4027 319.881 36.68 320.777 36.68C321.673 36.68 322.654 36.68 323.721 36.68C324.788 36.6373 325.897 36.5947 327.049 36.552C328.201 36.5093 329.353 36.4667 330.505 36.424C331.7 36.3813 333.214 36.296 335.049 36.168C336.926 36.04 339.252 35.8907 342.025 35.72V44.36ZM355.153 45H342.672L359.633 0.199997H372.433L389.393 45H376.913L374.033 37H358.033L355.153 45ZM360.913 28.68H371.153L366.033 13.64L360.913 28.68Z" fill="white"/>
<path d="M0.84 0.199997V-1.8H-1.16V0.199997H0.84ZM37.448 3.272L36.019 4.67125L36.0337 4.68629L36.0488 4.70102L37.448 3.272ZM38.728 27.016L37.0196 25.9761L37.0113 25.9898L37.0032 26.0036L38.728 27.016ZM33.16 30.92L32.6749 28.9797L30.1202 29.6184L31.4211 31.908L33.16 30.92ZM41.16 45V47H44.5967L42.8989 44.012L41.16 45ZM28.68 45L26.9258 45.9606L27.495 47H28.68V45ZM21.32 31.56L23.0742 30.5994L22.505 29.56H21.32V31.56ZM12.36 31.56V29.56H10.36V31.56H12.36ZM12.36 45V47H14.36V45H12.36ZM0.84 45H-1.16V47H0.84V45ZM12.36 9.16V7.16H10.36V9.16H12.36ZM12.36 22.6H10.36V24.6H12.36V22.6ZM0.84 2.2H27.72V-1.8H0.84V2.2ZM27.72 2.2C31.9574 2.2 34.5556 3.17669 36.019 4.67125L38.877 1.87275C36.3298 -0.728693 32.4426 -1.8 27.72 -1.8V2.2ZM36.0488 4.70102C37.5433 6.16444 38.52 8.76258 38.52 13H42.52C42.52 8.27742 41.4487 4.39022 38.8473 1.84298L36.0488 4.70102ZM38.52 13V18.76H42.52V13H38.52ZM38.52 18.76C38.52 22.1172 37.9468 24.4528 37.0196 25.9761L40.4364 28.0559C41.8985 25.6539 42.52 22.4855 42.52 18.76H38.52ZM37.0032 26.0036C36.1668 27.4286 34.804 28.4474 32.6749 28.9797L33.6451 32.8603C36.636 32.1126 38.9852 30.5288 40.4528 28.0284L37.0032 26.0036ZM31.4211 31.908L39.4211 45.988L42.8989 44.012L34.8989 29.932L31.4211 31.908ZM41.16 43H28.68V47H41.16V43ZM30.4342 44.0394L23.0742 30.5994L19.5658 32.5206L26.9258 45.9606L30.4342 44.0394ZM21.32 29.56H12.36V33.56H21.32V29.56ZM10.36 31.56V45H14.36V31.56H10.36ZM12.36 43H0.84V47H12.36V43ZM2.84 45V0.199997H-1.16V45H2.84ZM31 13C31 11.4117 30.6016 9.85315 29.4542 8.70579C28.3069 7.55843 26.7483 7.16 25.16 7.16V11.16C26.1317 11.16 26.4931 11.4016 26.6258 11.5342C26.7584 11.6669 27 12.0283 27 13H31ZM25.16 7.16H12.36V11.16H25.16V7.16ZM10.36 9.16V22.6H14.36V9.16H10.36ZM12.36 24.6H25.16V20.6H12.36V24.6ZM25.16 24.6C26.7483 24.6 28.3069 24.2016 29.4542 23.0542C30.6016 21.9069 31 20.3483 31 18.76H27C27 19.7317 26.7584 20.0931 26.6258 20.2258C26.4931 20.3584 26.1317 20.6 25.16 20.6V24.6ZM31 18.76V13H27V18.76H31ZM85.9425 45V47H87.9425V45H85.9425ZM74.4225 45H72.4225V47H74.4225V45ZM74.4225 26.76H76.4225V24.76H74.4225V26.76ZM58.4225 26.76V24.76H56.4225V26.76H58.4225ZM58.4225 45V47H60.4225V45H58.4225ZM46.9025 45H44.9025V47H46.9025V45ZM46.9025 0.199997V-1.8H44.9025V0.199997H46.9025ZM58.4225 0.199997H60.4225V-1.8H58.4225V0.199997ZM58.4225 17.8H56.4225V19.8H58.4225V17.8ZM74.4225 17.8V19.8H76.4225V17.8H74.4225ZM74.4225 0.199997V-1.8H72.4225V0.199997H74.4225ZM85.9425 0.199997H87.9425V-1.8H85.9425V0.199997ZM85.9425 43H74.4225V47H85.9425V43ZM76.4225 45V26.76H72.4225V45H76.4225ZM74.4225 24.76H58.4225V28.76H74.4225V24.76ZM56.4225 26.76V45H60.4225V26.76H56.4225ZM58.4225 43H46.9025V47H58.4225V43ZM48.9025 45V0.199997H44.9025V45H48.9025ZM46.9025 2.2H58.4225V-1.8H46.9025V2.2ZM56.4225 0.199997V17.8H60.4225V0.199997H56.4225ZM58.4225 19.8H74.4225V15.8H58.4225V19.8ZM76.4225 17.8V0.199997H72.4225V17.8H76.4225ZM74.4225 2.2H85.9425V-1.8H74.4225V2.2ZM83.9425 0.199997V45H87.9425V0.199997H83.9425ZM88.5325 0.199997V-1.8H85.2541L86.7541 1.11508L88.5325 0.199997ZM100.692 0.199997L102.492 -0.6732L101.945 -1.8H100.692V0.199997ZM111.253 21.96L109.453 22.8332L111.253 26.5409L113.052 22.8332L111.253 21.96ZM121.812 0.199997V-1.8H120.56L120.013 -0.673199L121.812 0.199997ZM133.973 0.199997L135.751 1.11508L137.251 -1.8H133.973V0.199997ZM117.012 33.16L115.234 32.2449L115.012 32.6756V33.16H117.012ZM117.012 45V47H119.012V45H117.012ZM105.493 45H103.493V47H105.493V45ZM105.493 33.16H107.493V32.6756L107.271 32.2449L105.493 33.16ZM88.5325 2.2H100.692V-1.8H88.5325V2.2ZM98.8932 1.07319L109.453 22.8332L113.052 21.0868L102.492 -0.6732L98.8932 1.07319ZM113.052 22.8332L123.612 1.07319L120.013 -0.673199L109.453 21.0868L113.052 22.8332ZM121.812 2.2H133.973V-1.8H121.812V2.2ZM132.194 -0.715089L115.234 32.2449L118.791 34.0751L135.751 1.11508L132.194 -0.715089ZM115.012 33.16V45H119.012V33.16H115.012ZM117.012 43H105.493V47H117.012V43ZM107.493 45V33.16H103.493V45H107.493ZM107.271 32.2449L90.3109 -0.715089L86.7541 1.11508L103.714 34.0751L107.271 32.2449ZM158.288 45V47H160.288V45H158.288ZM146.768 45H144.768V47H146.768V45ZM146.768 9.16H148.768V7.16H146.768V9.16ZM133.327 9.16H131.327V11.16H133.327V9.16ZM133.327 0.199997V-1.8H131.327V0.199997H133.327ZM171.728 0.199997H173.728V-1.8H171.728V0.199997ZM171.728 9.16V11.16H173.728V9.16H171.728ZM158.288 9.16V7.16H156.288V9.16H158.288ZM158.288 43H146.768V47H158.288V43ZM148.768 45V9.16H144.768V45H148.768ZM146.768 7.16H133.327V11.16H146.768V7.16ZM135.327 9.16V0.199997H131.327V9.16H135.327ZM133.327 2.2H171.728V-1.8H133.327V2.2ZM169.728 0.199997V9.16H173.728V0.199997H169.728ZM171.728 7.16H158.288V11.16H171.728V7.16ZM156.288 9.16V45H160.288V9.16H156.288ZM215.255 45V47H217.255V45H215.255ZM203.735 45H201.735V47H203.735V45ZM203.735 26.76H205.735V24.76H203.735V26.76ZM187.735 26.76V24.76H185.735V26.76H187.735ZM187.735 45V47H189.735V45H187.735ZM176.215 45H174.215V47H176.215V45ZM176.215 0.199997V-1.8H174.215V0.199997H176.215ZM187.735 0.199997H189.735V-1.8H187.735V0.199997ZM187.735 17.8H185.735V19.8H187.735V17.8ZM203.735 17.8V19.8H205.735V17.8H203.735ZM203.735 0.199997V-1.8H201.735V0.199997H203.735ZM215.255 0.199997H217.255V-1.8H215.255V0.199997ZM215.255 43H203.735V47H215.255V43ZM205.735 45V26.76H201.735V45H205.735ZM203.735 24.76H187.735V28.76H203.735V24.76ZM185.735 26.76V45H189.735V26.76H185.735ZM187.735 43H176.215V47H187.735V43ZM178.215 45V0.199997H174.215V45H178.215ZM176.215 2.2H187.735V-1.8H176.215V2.2ZM185.735 0.199997V17.8H189.735V0.199997H185.735ZM187.735 19.8H203.735V15.8H187.735V19.8ZM205.735 17.8V0.199997H201.735V17.8H205.735ZM203.735 2.2H215.255V-1.8H203.735V2.2ZM213.255 0.199997V45H217.255V0.199997H213.255ZM261.365 20.04H263.365V12.3753L259.62 19.0628L261.365 20.04ZM252.405 36.04V38.04H253.577L254.15 37.0172L252.405 36.04ZM243.445 36.04L241.7 37.0172L242.273 38.04H243.445V36.04ZM234.485 20.04L236.23 19.0628L232.485 12.3753V20.04H234.485ZM234.485 45V47H236.485V45H234.485ZM222.965 45H220.965V47H222.965V45ZM222.965 0.199997V-1.8H220.965V0.199997H222.965ZM235.125 0.199997L236.884 -0.751037L236.317 -1.8H235.125V0.199997ZM247.925 23.88L246.166 24.831L247.925 28.0859L249.684 24.831L247.925 23.88ZM260.725 0.199997V-1.8H259.533L258.966 -0.751037L260.725 0.199997ZM272.885 0.199997H274.885V-1.8H272.885V0.199997ZM272.885 45V47H274.885V45H272.885ZM261.365 45H259.365V47H261.365V45ZM259.62 19.0628L250.66 35.0628L254.15 37.0172L263.11 21.0172L259.62 19.0628ZM252.405 34.04H243.445V38.04H252.405V34.04ZM245.19 35.0628L236.23 19.0628L232.74 21.0172L241.7 37.0172L245.19 35.0628ZM232.485 20.04V45H236.485V20.04H232.485ZM234.485 43H222.965V47H234.485V43ZM224.965 45V0.199997H220.965V45H224.965ZM222.965 2.2H235.125V-1.8H222.965V2.2ZM233.366 1.15103L246.166 24.831L249.684 22.929L236.884 -0.751037L233.366 1.15103ZM249.684 24.831L262.484 1.15103L258.966 -0.751037L246.166 22.929L249.684 24.831ZM260.725 2.2H272.885V-1.8H260.725V2.2ZM270.885 0.199997V45H274.885V0.199997H270.885ZM272.885 43H261.365V47H272.885V43ZM263.365 45V20.04H259.365V45H263.365ZM301.71 45V47H303.71V45H301.71ZM278.67 45H276.67V47H278.67V45ZM278.67 36.04V34.04H276.67V36.04H278.67ZM284.43 36.04V38.04H286.43V36.04H284.43ZM284.43 9.16H286.43V7.16H284.43V9.16ZM278.67 9.16H276.67V11.16H278.67V9.16ZM278.67 0.199997V-1.8H276.67V0.199997H278.67ZM301.71 0.199997H303.71V-1.8H301.71V0.199997ZM301.71 9.16V11.16H303.71V9.16H301.71ZM295.95 9.16V7.16H293.95V9.16H295.95ZM295.95 36.04H293.95V38.04H295.95V36.04ZM301.71 36.04H303.71V34.04H301.71V36.04ZM301.71 43H278.67V47H301.71V43ZM280.67 45V36.04H276.67V45H280.67ZM278.67 38.04H284.43V34.04H278.67V38.04ZM286.43 36.04V9.16H282.43V36.04H286.43ZM284.43 7.16H278.67V11.16H284.43V7.16ZM280.67 9.16V0.199997H276.67V9.16H280.67ZM278.67 2.2H301.71V-1.8H278.67V2.2ZM299.71 0.199997V9.16H303.71V0.199997H299.71ZM301.71 7.16H295.95V11.16H301.71V7.16ZM293.95 9.16V36.04H297.95V9.16H293.95ZM295.95 38.04H301.71V34.04H295.95V38.04ZM299.71 36.04V45H303.71V36.04H299.71ZM342.025 44.36L342.204 46.352L344.025 46.1887V44.36H342.025ZM309.129 42.696L310.543 41.2818L309.129 42.696ZM309.193 3.272L310.607 4.68621L309.193 3.272ZM342.025 0.199997H344.025V-1.8H342.025V0.199997ZM342.025 9.16V11.16H344.025V9.16H342.025ZM318.537 35.848L317.071 37.2089L317.122 37.2632L317.176 37.3136L318.537 35.848ZM323.721 36.68V38.68H323.761L323.801 38.6784L323.721 36.68ZM327.049 36.552L327.123 38.5506L327.049 36.552ZM330.505 36.424L330.434 34.4253L330.431 34.4254L330.505 36.424ZM335.049 36.168L334.913 34.1726L334.91 34.1728L335.049 36.168ZM342.025 35.72H344.025V33.5931L341.902 33.7238L342.025 35.72ZM341.846 42.368C332.364 43.2184 324.535 43.64 318.345 43.64V47.64C324.699 47.64 332.657 47.2082 342.204 46.352L341.846 42.368ZM318.345 43.64C314.429 43.64 311.978 42.7163 310.543 41.2818L307.715 44.1102C310.206 46.601 313.898 47.64 318.345 47.64V43.64ZM310.543 41.2818C309.109 39.8472 308.185 37.3959 308.185 33.48H304.185C304.185 37.9268 305.224 41.6194 307.715 44.1102L310.543 41.2818ZM308.185 33.48V13H304.185V33.48H308.185ZM308.185 13C308.185 8.75293 309.145 6.14852 310.607 4.68621L307.779 1.85779C305.23 4.40614 304.185 8.28707 304.185 13H308.185ZM310.607 4.68621C312.119 3.17471 314.752 2.2 318.985 2.2V-1.8C314.258 -1.8 310.363 -0.726712 307.779 1.85779L310.607 4.68621ZM318.985 2.2H342.025V-1.8H318.985V2.2ZM340.025 0.199997V9.16H344.025V0.199997H340.025ZM342.025 7.16H321.545V11.16H342.025V7.16ZM321.545 7.16C319.957 7.16 318.398 7.55843 317.251 8.70579C316.103 9.85315 315.705 11.4117 315.705 13H319.705C319.705 12.0283 319.947 11.6669 320.079 11.5342C320.212 11.4016 320.573 11.16 321.545 11.16V7.16ZM315.705 13V33.48H319.705V13H315.705ZM315.705 33.48C315.705 34.8573 316.106 36.1689 317.071 37.2089L320.003 34.4871C319.859 34.3324 319.705 34.0653 319.705 33.48H315.705ZM317.176 37.3136C318.181 38.2471 319.431 38.68 320.777 38.68V34.68C320.331 34.68 320.087 34.5583 319.898 34.3824L317.176 37.3136ZM320.777 38.68C320.779 38.68 320.78 38.68 320.782 38.68C320.784 38.68 320.786 38.68 320.788 38.68C320.789 38.68 320.791 38.68 320.793 38.68C320.795 38.68 320.796 38.68 320.798 38.68C320.8 38.68 320.802 38.68 320.803 38.68C320.805 38.68 320.807 38.68 320.809 38.68C320.81 38.68 320.812 38.68 320.814 38.68C320.816 38.68 320.817 38.68 320.819 38.68C320.821 38.68 320.823 38.68 320.824 38.68C320.826 38.68 320.828 38.68 320.83 38.68C320.831 38.68 320.833 38.68 320.835 38.68C320.837 38.68 320.838 38.68 320.84 38.68C320.842 38.68 320.844 38.68 320.845 38.68C320.847 38.68 320.849 38.68 320.851 38.68C320.852 38.68 320.854 38.68 320.856 38.68C320.858 38.68 320.859 38.68 320.861 38.68C320.863 38.68 320.865 38.68 320.867 38.68C320.868 38.68 320.87 38.68 320.872 38.68C320.874 38.68 320.875 38.68 320.877 38.68C320.879 38.68 320.881 38.68 320.882 38.68C320.884 38.68 320.886 38.68 320.888 38.68C320.889 38.68 320.891 38.68 320.893 38.68C320.895 38.68 320.897 38.68 320.898 38.68C320.9 38.68 320.902 38.68 320.904 38.68C320.905 38.68 320.907 38.68 320.909 38.68C320.911 38.68 320.912 38.68 320.914 38.68C320.916 38.68 320.918 38.68 320.919 38.68C320.921 38.68 320.923 38.68 320.925 38.68C320.927 38.68 320.928 38.68 320.93 38.68C320.932 38.68 320.934 38.68 320.935 38.68C320.937 38.68 320.939 38.68 320.941 38.68C320.942 38.68 320.944 38.68 320.946 38.68C320.948 38.68 320.95 38.68 320.951 38.68C320.953 38.68 320.955 38.68 320.957 38.68C320.958 38.68 320.96 38.68 320.962 38.68C320.964 38.68 320.965 38.68 320.967 38.68C320.969 38.68 320.971 38.68 320.973 38.68C320.974 38.68 320.976 38.68 320.978 38.68C320.98 38.68 320.981 38.68 320.983 38.68C320.985 38.68 320.987 38.68 320.989 38.68C320.99 38.68 320.992 38.68 320.994 38.68C320.996 38.68 320.997 38.68 320.999 38.68C321.001 38.68 321.003 38.68 321.005 38.68C321.006 38.68 321.008 38.68 321.01 38.68C321.012 38.68 321.013 38.68 321.015 38.68C321.017 38.68 321.019 38.68 321.021 38.68C321.022 38.68 321.024 38.68 321.026 38.68C321.028 38.68 321.029 38.68 321.031 38.68C321.033 38.68 321.035 38.68 321.037 38.68C321.038 38.68 321.04 38.68 321.042 38.68C321.044 38.68 321.046 38.68 321.047 38.68C321.049 38.68 321.051 38.68 321.053 38.68C321.054 38.68 321.056 38.68 321.058 38.68C321.06 38.68 321.062 38.68 321.063 38.68C321.065 38.68 321.067 38.68 321.069 38.68C321.07 38.68 321.072 38.68 321.074 38.68C321.076 38.68 321.078 38.68 321.079 38.68C321.081 38.68 321.083 38.68 321.085 38.68C321.087 38.68 321.088 38.68 321.09 38.68C321.092 38.68 321.094 38.68 321.096 38.68C321.097 38.68 321.099 38.68 321.101 38.68C321.103 38.68 321.104 38.68 321.106 38.68C321.108 38.68 321.11 38.68 321.112 38.68C321.113 38.68 321.115 38.68 321.117 38.68C321.119 38.68 321.121 38.68 321.122 38.68C321.124 38.68 321.126 38.68 321.128 38.68C321.13 38.68 321.131 38.68 321.133 38.68C321.135 38.68 321.137 38.68 321.139 38.68C321.14 38.68 321.142 38.68 321.144 38.68C321.146 38.68 321.147 38.68 321.149 38.68C321.151 38.68 321.153 38.68 321.155 38.68C321.156 38.68 321.158 38.68 321.16 38.68C321.162 38.68 321.164 38.68 321.165 38.68C321.167 38.68 321.169 38.68 321.171 38.68C321.173 38.68 321.174 38.68 321.176 38.68C321.178 38.68 321.18 38.68 321.182 38.68C321.183 38.68 321.185 38.68 321.187 38.68C321.189 38.68 321.191 38.68 321.192 38.68C321.194 38.68 321.196 38.68 321.198 38.68C321.2 38.68 321.201 38.68 321.203 38.68C321.205 38.68 321.207 38.68 321.209 38.68C321.21 38.68 321.212 38.68 321.214 38.68C321.216 38.68 321.218 38.68 321.219 38.68C321.221 38.68 321.223 38.68 321.225 38.68C321.227 38.68 321.229 38.68 321.23 38.68C321.232 38.68 321.234 38.68 321.236 38.68C321.238 38.68 321.239 38.68 321.241 38.68C321.243 38.68 321.245 38.68 321.247 38.68C321.248 38.68 321.25 38.68 321.252 38.68C321.254 38.68 321.256 38.68 321.257 38.68C321.259 38.68 321.261 38.68 321.263 38.68C321.265 38.68 321.266 38.68 321.268 38.68C321.27 38.68 321.272 38.68 321.274 38.68C321.276 38.68 321.277 38.68 321.279 38.68C321.281 38.68 321.283 38.68 321.285 38.68C321.286 38.68 321.288 38.68 321.29 38.68C321.292 38.68 321.294 38.68 321.295 38.68C321.297 38.68 321.299 38.68 321.301 38.68C321.303 38.68 321.305 38.68 321.306 38.68C321.308 38.68 321.31 38.68 321.312 38.68C321.314 38.68 321.315 38.68 321.317 38.68C321.319 38.68 321.321 38.68 321.323 38.68C321.324 38.68 321.326 38.68 321.328 38.68C321.33 38.68 321.332 38.68 321.334 38.68C321.335 38.68 321.337 38.68 321.339 38.68C321.341 38.68 321.343 38.68 321.344 38.68C321.346 38.68 321.348 38.68 321.35 38.68C321.352 38.68 321.354 38.68 321.355 38.68C321.357 38.68 321.359 38.68 321.361 38.68C321.363 38.68 321.365 38.68 321.366 38.68C321.368 38.68 321.37 38.68 321.372 38.68C321.374 38.68 321.375 38.68 321.377 38.68C321.379 38.68 321.381 38.68 321.383 38.68C321.385 38.68 321.386 38.68 321.388 38.68C321.39 38.68 321.392 38.68 321.394 38.68C321.395 38.68 321.397 38.68 321.399 38.68C321.401 38.68 321.403 38.68 321.405 38.68C321.406 38.68 321.408 38.68 321.41 38.68C321.412 38.68 321.414 38.68 321.416 38.68C321.417 38.68 321.419 38.68 321.421 38.68C321.423 38.68 321.425 38.68 321.427 38.68C321.428 38.68 321.43 38.68 321.432 38.68C321.434 38.68 321.436 38.68 321.438 38.68C321.439 38.68 321.441 38.68 321.443 38.68C321.445 38.68 321.447 38.68 321.449 38.68C321.45 38.68 321.452 38.68 321.454 38.68C321.456 38.68 321.458 38.68 321.46 38.68C321.461 38.68 321.463 38.68 321.465 38.68C321.467 38.68 321.469 38.68 321.47 38.68C321.472 38.68 321.474 38.68 321.476 38.68C321.478 38.68 321.48 38.68 321.482 38.68C321.483 38.68 321.485 38.68 321.487 38.68C321.489 38.68 321.491 38.68 321.493 38.68C321.494 38.68 321.496 38.68 321.498 38.68C321.5 38.68 321.502 38.68 321.504 38.68C321.505 38.68 321.507 38.68 321.509 38.68C321.511 38.68 321.513 38.68 321.515 38.68C321.516 38.68 321.518 38.68 321.52 38.68C321.522 38.68 321.524 38.68 321.526 38.68C321.527 38.68 321.529 38.68 321.531 38.68C321.533 38.68 321.535 38.68 321.537 38.68C321.539 38.68 321.54 38.68 321.542 38.68C321.544 38.68 321.546 38.68 321.548 38.68C321.55 38.68 321.551 38.68 321.553 38.68C321.555 38.68 321.557 38.68 321.559 38.68C321.561 38.68 321.562 38.68 321.564 38.68C321.566 38.68 321.568 38.68 321.57 38.68C321.572 38.68 321.574 38.68 321.575 38.68C321.577 38.68 321.579 38.68 321.581 38.68C321.583 38.68 321.585 38.68 321.586 38.68C321.588 38.68 321.59 38.68 321.592 38.68C321.594 38.68 321.596 38.68 321.598 38.68C321.599 38.68 321.601 38.68 321.603 38.68C321.605 38.68 321.607 38.68 321.609 38.68C321.611 38.68 321.612 38.68 321.614 38.68C321.616 38.68 321.618 38.68 321.62 38.68C321.622 38.68 321.623 38.68 321.625 38.68C321.627 38.68 321.629 38.68 321.631 38.68C321.633 38.68 321.635 38.68 321.636 38.68C321.638 38.68 321.64 38.68 321.642 38.68C321.644 38.68 321.646 38.68 321.648 38.68C321.649 38.68 321.651 38.68 321.653 38.68C321.655 38.68 321.657 38.68 321.659 38.68C321.661 38.68 321.662 38.68 321.664 38.68C321.666 38.68 321.668 38.68 321.67 38.68C321.672 38.68 321.674 38.68 321.675 38.68C321.677 38.68 321.679 38.68 321.681 38.68C321.683 38.68 321.685 38.68 321.687 38.68C321.688 38.68 321.69 38.68 321.692 38.68C321.694 38.68 321.696 38.68 321.698 38.68C321.7 38.68 321.701 38.68 321.703 38.68C321.705 38.68 321.707 38.68 321.709 38.68C321.711 38.68 321.713 38.68 321.714 38.68C321.716 38.68 321.718 38.68 321.72 38.68C321.722 38.68 321.724 38.68 321.726 38.68C321.728 38.68 321.729 38.68 321.731 38.68C321.733 38.68 321.735 38.68 321.737 38.68C321.739 38.68 321.741 38.68 321.742 38.68C321.744 38.68 321.746 38.68 321.748 38.68C321.75 38.68 321.752 38.68 321.754 38.68C321.755 38.68 321.757 38.68 321.759 38.68C321.761 38.68 321.763 38.68 321.765 38.68C321.767 38.68 321.769 38.68 321.77 38.68C321.772 38.68 321.774 38.68 321.776 38.68C321.778 38.68 321.78 38.68 321.782 38.68C321.784 38.68 321.785 38.68 321.787 38.68C321.789 38.68 321.791 38.68 321.793 38.68C321.795 38.68 321.797 38.68 321.799 38.68C321.8 38.68 321.802 38.68 321.804 38.68C321.806 38.68 321.808 38.68 321.81 38.68C321.812 38.68 321.814 38.68 321.815 38.68C321.817 38.68 321.819 38.68 321.821 38.68C321.823 38.68 321.825 38.68 321.827 38.68C321.828 38.68 321.83 38.68 321.832 38.68C321.834 38.68 321.836 38.68 321.838 38.68C321.84 38.68 321.842 38.68 321.844 38.68C321.845 38.68 321.847 38.68 321.849 38.68C321.851 38.68 321.853 38.68 321.855 38.68C321.857 38.68 321.859 38.68 321.86 38.68C321.862 38.68 321.864 38.68 321.866 38.68C321.868 38.68 321.87 38.68 321.872 38.68C321.874 38.68 321.875 38.68 321.877 38.68C321.879 38.68 321.881 38.68 321.883 38.68C321.885 38.68 321.887 38.68 321.889 38.68C321.891 38.68 321.892 38.68 321.894 38.68C321.896 38.68 321.898 38.68 321.9 38.68C321.902 38.68 321.904 38.68 321.906 38.68C321.907 38.68 321.909 38.68 321.911 38.68C321.913 38.68 321.915 38.68 321.917 38.68C321.919 38.68 321.921 38.68 321.923 38.68C321.924 38.68 321.926 38.68 321.928 38.68C321.93 38.68 321.932 38.68 321.934 38.68C321.936 38.68 321.938 38.68 321.94 38.68C321.941 38.68 321.943 38.68 321.945 38.68C321.947 38.68 321.949 38.68 321.951 38.68C321.953 38.68 321.955 38.68 321.957 38.68C321.958 38.68 321.96 38.68 321.962 38.68C321.964 38.68 321.966 38.68 321.968 38.68C321.97 38.68 321.972 38.68 321.974 38.68C321.975 38.68 321.977 38.68 321.979 38.68C321.981 38.68 321.983 38.68 321.985 38.68C321.987 38.68 321.989 38.68 321.991 38.68C321.993 38.68 321.994 38.68 321.996 38.68C321.998 38.68 322 38.68 322.002 38.68C322.004 38.68 322.006 38.68 322.008 38.68C322.01 38.68 322.011 38.68 322.013 38.68C322.015 38.68 322.017 38.68 322.019 38.68C322.021 38.68 322.023 38.68 322.025 38.68C322.027 38.68 322.029 38.68 322.03 38.68C322.032 38.68 322.034 38.68 322.036 38.68C322.038 38.68 322.04 38.68 322.042 38.68C322.044 38.68 322.046 38.68 322.048 38.68C322.049 38.68 322.051 38.68 322.053 38.68C322.055 38.68 322.057 38.68 322.059 38.68C322.061 38.68 322.063 38.68 322.065 38.68C322.067 38.68 322.068 38.68 322.07 38.68C322.072 38.68 322.074 38.68 322.076 38.68C322.078 38.68 322.08 38.68 322.082 38.68C322.084 38.68 322.086 38.68 322.088 38.68C322.089 38.68 322.091 38.68 322.093 38.68C322.095 38.68 322.097 38.68 322.099 38.68C322.101 38.68 322.103 38.68 322.105 38.68C322.107 38.68 322.109 38.68 322.11 38.68C322.112 38.68 322.114 38.68 322.116 38.68C322.118 38.68 322.12 38.68 322.122 38.68C322.124 38.68 322.126 38.68 322.128 38.68C322.13 38.68 322.131 38.68 322.133 38.68C322.135 38.68 322.137 38.68 322.139 38.68C322.141 38.68 322.143 38.68 322.145 38.68C322.147 38.68 322.149 38.68 322.151 38.68C322.152 38.68 322.154 38.68 322.156 38.68C322.158 38.68 322.16 38.68 322.162 38.68C322.164 38.68 322.166 38.68 322.168 38.68C322.17 38.68 322.172 38.68 322.173 38.68C322.175 38.68 322.177 38.68 322.179 38.68C322.181 38.68 322.183 38.68 322.185 38.68C322.187 38.68 322.189 38.68 322.191 38.68C322.193 38.68 322.195 38.68 322.197 38.68C322.198 38.68 322.2 38.68 322.202 38.68C322.204 38.68 322.206 38.68 322.208 38.68C322.21 38.68 322.212 38.68 322.214 38.68C322.216 38.68 322.218 38.68 322.22 38.68C322.221 38.68 322.223 38.68 322.225 38.68C322.227 38.68 322.229 38.68 322.231 38.68C322.233 38.68 322.235 38.68 322.237 38.68C322.239 38.68 322.241 38.68 322.243 38.68C322.245 38.68 322.246 38.68 322.248 38.68C322.25 38.68 322.252 38.68 322.254 38.68C322.256 38.68 322.258 38.68 322.26 38.68C322.262 38.68 322.264 38.68 322.266 38.68C322.268 38.68 322.27 38.68 322.271 38.68C322.273 38.68 322.275 38.68 322.277 38.68C322.279 38.68 322.281 38.68 322.283 38.68C322.285 38.68 322.287 38.68 322.289 38.68C322.291 38.68 322.293 38.68 322.295 38.68C322.297 38.68 322.298 38.68 322.3 38.68C322.302 38.68 322.304 38.68 322.306 38.68C322.308 38.68 322.31 38.68 322.312 38.68C322.314 38.68 322.316 38.68 322.318 38.68C322.32 38.68 322.322 38.68 322.324 38.68C322.326 38.68 322.327 38.68 322.329 38.68C322.331 38.68 322.333 38.68 322.335 38.68C322.337 38.68 322.339 38.68 322.341 38.68C322.343 38.68 322.345 38.68 322.347 38.68C322.349 38.68 322.351 38.68 322.353 38.68C322.354 38.68 322.356 38.68 322.358 38.68C322.36 38.68 322.362 38.68 322.364 38.68C322.366 38.68 322.368 38.68 322.37 38.68C322.372 38.68 322.374 38.68 322.376 38.68C322.378 38.68 322.38 38.68 322.382 38.68C322.384 38.68 322.385 38.68 322.387 38.68C322.389 38.68 322.391 38.68 322.393 38.68C322.395 38.68 322.397 38.68 322.399 38.68C322.401 38.68 322.403 38.68 322.405 38.68C322.407 38.68 322.409 38.68 322.411 38.68C322.413 38.68 322.415 38.68 322.417 38.68C322.419 38.68 322.42 38.68 322.422 38.68C322.424 38.68 322.426 38.68 322.428 38.68C322.43 38.68 322.432 38.68 322.434 38.68C322.436 38.68 322.438 38.68 322.44 38.68C322.442 38.68 322.444 38.68 322.446 38.68C322.448 38.68 322.45 38.68 322.452 38.68C322.454 38.68 322.455 38.68 322.457 38.68C322.459 38.68 322.461 38.68 322.463 38.68C322.465 38.68 322.467 38.68 322.469 38.68C322.471 38.68 322.473 38.68 322.475 38.68C322.477 38.68 322.479 38.68 322.481 38.68C322.483 38.68 322.485 38.68 322.487 38.68C322.489 38.68 322.491 38.68 322.492 38.68C322.494 38.68 322.496 38.68 322.498 38.68C322.5 38.68 322.502 38.68 322.504 38.68C322.506 38.68 322.508 38.68 322.51 38.68C322.512 38.68 322.514 38.68 322.516 38.68C322.518 38.68 322.52 38.68 322.522 38.68C322.524 38.68 322.526 38.68 322.528 38.68C322.53 38.68 322.532 38.68 322.534 38.68C322.535 38.68 322.537 38.68 322.539 38.68C322.541 38.68 322.543 38.68 322.545 38.68C322.547 38.68 322.549 38.68 322.551 38.68C322.553 38.68 322.555 38.68 322.557 38.68C322.559 38.68 322.561 38.68 322.563 38.68C322.565 38.68 322.567 38.68 322.569 38.68C322.571 38.68 322.573 38.68 322.575 38.68C322.577 38.68 322.579 38.68 322.581 38.68C322.582 38.68 322.584 38.68 322.586 38.68C322.588 38.68 322.59 38.68 322.592 38.68C322.594 38.68 322.596 38.68 322.598 38.68C322.6 38.68 322.602 38.68 322.604 38.68C322.606 38.68 322.608 38.68 322.61 38.68C322.612 38.68 322.614 38.68 322.616 38.68C322.618 38.68 322.62 38.68 322.622 38.68C322.624 38.68 322.626 38.68 322.628 38.68C322.63 38.68 322.632 38.68 322.634 38.68C322.635 38.68 322.637 38.68 322.639 38.68C322.641 38.68 322.643 38.68 322.645 38.68C322.647 38.68 322.649 38.68 322.651 38.68C322.653 38.68 322.655 38.68 322.657 38.68C322.659 38.68 322.661 38.68 322.663 38.68C322.665 38.68 322.667 38.68 322.669 38.68C322.671 38.68 322.673 38.68 322.675 38.68C322.677 38.68 322.679 38.68 322.681 38.68C322.683 38.68 322.685 38.68 322.687 38.68C322.689 38.68 322.691 38.68 322.693 38.68C322.695 38.68 322.697 38.68 322.699 38.68C322.701 38.68 322.703 38.68 322.704 38.68C322.706 38.68 322.708 38.68 322.71 38.68C322.712 38.68 322.714 38.68 322.716 38.68C322.718 38.68 322.72 38.68 322.722 38.68C322.724 38.68 322.726 38.68 322.728 38.68C322.73 38.68 322.732 38.68 322.734 38.68C322.736 38.68 322.738 38.68 322.74 38.68C322.742 38.68 322.744 38.68 322.746 38.68C322.748 38.68 322.75 38.68 322.752 38.68C322.754 38.68 322.756 38.68 322.758 38.68C322.76 38.68 322.762 38.68 322.764 38.68C322.766 38.68 322.768 38.68 322.77 38.68C322.772 38.68 322.774 38.68 322.776 38.68C322.778 38.68 322.78 38.68 322.782 38.68C322.784 38.68 322.786 38.68 322.788 38.68C322.79 38.68 322.792 38.68 322.794 38.68C322.796 38.68 322.798 38.68 322.8 38.68C322.802 38.68 322.803 38.68 322.805 38.68C322.807 38.68 322.809 38.68 322.811 38.68C322.813 38.68 322.815 38.68 322.817 38.68C322.819 38.68 322.821 38.68 322.823 38.68C322.825 38.68 322.827 38.68 322.829 38.68C322.831 38.68 322.833 38.68 322.835 38.68C322.837 38.68 322.839 38.68 322.841 38.68C322.843 38.68 322.845 38.68 322.847 38.68C322.849 38.68 322.851 38.68 322.853 38.68C322.855 38.68 322.857 38.68 322.859 38.68C322.861 38.68 322.863 38.68 322.865 38.68C322.867 38.68 322.869 38.68 322.871 38.68C322.873 38.68 322.875 38.68 322.877 38.68C322.879 38.68 322.881 38.68 322.883 38.68C322.885 38.68 322.887 38.68 322.889 38.68C322.891 38.68 322.893 38.68 322.895 38.68C322.897 38.68 322.899 38.68 322.901 38.68C322.903 38.68 322.905 38.68 322.907 38.68C322.909 38.68 322.911 38.68 322.913 38.68C322.915 38.68 322.917 38.68 322.919 38.68C322.921 38.68 322.923 38.68 322.925 38.68C322.927 38.68 322.929 38.68 322.931 38.68C322.933 38.68 322.935 38.68 322.937 38.68C322.939 38.68 322.941 38.68 322.943 38.68C322.945 38.68 322.947 38.68 322.949 38.68C322.951 38.68 322.953 38.68 322.955 38.68C322.957 38.68 322.959 38.68 322.961 38.68C322.963 38.68 322.965 38.68 322.967 38.68C322.969 38.68 322.971 38.68 322.973 38.68C322.975 38.68 322.977 38.68 322.979 38.68C322.981 38.68 322.983 38.68 322.985 38.68C322.987 38.68 322.989 38.68 322.991 38.68C322.993 38.68 322.995 38.68 322.997 38.68C322.999 38.68 323.001 38.68 323.003 38.68C323.005 38.68 323.007 38.68 323.009 38.68C323.011 38.68 323.013 38.68 323.015 38.68C323.017 38.68 323.019 38.68 323.021 38.68C323.023 38.68 323.025 38.68 323.027 38.68C323.029 38.68 323.031 38.68 323.033 38.68C323.035 38.68 323.037 38.68 323.039 38.68C323.041 38.68 323.043 38.68 323.045 38.68C323.047 38.68 323.049 38.68 323.051 38.68C323.053 38.68 323.055 38.68 323.057 38.68C323.059 38.68 323.061 38.68 323.063 38.68C323.065 38.68 323.067 38.68 323.069 38.68C323.072 38.68 323.074 38.68 323.076 38.68C323.078 38.68 323.08 38.68 323.082 38.68C323.084 38.68 323.086 38.68 323.088 38.68C323.09 38.68 323.092 38.68 323.094 38.68C323.096 38.68 323.098 38.68 323.1 38.68C323.102 38.68 323.104 38.68 323.106 38.68C323.108 38.68 323.11 38.68 323.112 38.68C323.114 38.68 323.116 38.68 323.118 38.68C323.12 38.68 323.122 38.68 323.124 38.68C323.126 38.68 323.128 38.68 323.13 38.68C323.132 38.68 323.134 38.68 323.136 38.68C323.138 38.68 323.14 38.68 323.142 38.68C323.144 38.68 323.146 38.68 323.148 38.68C323.15 38.68 323.152 38.68 323.154 38.68C323.156 38.68 323.158 38.68 323.16 38.68C323.162 38.68 323.164 38.68 323.166 38.68C323.168 38.68 323.17 38.68 323.172 38.68C323.174 38.68 323.177 38.68 323.179 38.68C323.181 38.68 323.183 38.68 323.185 38.68C323.187 38.68 323.189 38.68 323.191 38.68C323.193 38.68 323.195 38.68 323.197 38.68C323.199 38.68 323.201 38.68 323.203 38.68C323.205 38.68 323.207 38.68 323.209 38.68C323.211 38.68 323.213 38.68 323.215 38.68C323.217 38.68 323.219 38.68 323.221 38.68C323.223 38.68 323.225 38.68 323.227 38.68C323.229 38.68 323.231 38.68 323.233 38.68C323.235 38.68 323.237 38.68 323.239 38.68C323.241 38.68 323.243 38.68 323.246 38.68C323.248 38.68 323.25 38.68 323.252 38.68C323.254 38.68 323.256 38.68 323.258 38.68C323.26 38.68 323.262 38.68 323.264 38.68C323.266 38.68 323.268 38.68 323.27 38.68C323.272 38.68 323.274 38.68 323.276 38.68C323.278 38.68 323.28 38.68 323.282 38.68C323.284 38.68 323.286 38.68 323.288 38.68C323.29 38.68 323.292 38.68 323.294 38.68C323.296 38.68 323.298 38.68 323.301 38.68C323.303 38.68 323.305 38.68 323.307 38.68C323.309 38.68 323.311 38.68 323.313 38.68C323.315 38.68 323.317 38.68 323.319 38.68C323.321 38.68 323.323 38.68 323.325 38.68C323.327 38.68 323.329 38.68 323.331 38.68C323.333 38.68 323.335 38.68 323.337 38.68C323.339 38.68 323.341 38.68 323.343 38.68C323.345 38.68 323.347 38.68 323.35 38.68C323.352 38.68 323.354 38.68 323.356 38.68C323.358 38.68 323.36 38.68 323.362 38.68C323.364 38.68 323.366 38.68 323.368 38.68C323.37 38.68 323.372 38.68 323.374 38.68C323.376 38.68 323.378 38.68 323.38 38.68C323.382 38.68 323.384 38.68 323.386 38.68C323.388 38.68 323.39 38.68 323.392 38.68C323.395 38.68 323.397 38.68 323.399 38.68C323.401 38.68 323.403 38.68 323.405 38.68C323.407 38.68 323.409 38.68 323.411 38.68C323.413 38.68 323.415 38.68 323.417 38.68C323.419 38.68 323.421 38.68 323.423 38.68C323.425 38.68 323.427 38.68 323.429 38.68C323.431 38.68 323.434 38.68 323.436 38.68C323.438 38.68 323.44 38.68 323.442 38.68C323.444 38.68 323.446 38.68 323.448 38.68C323.45 38.68 323.452 38.68 323.454 38.68C323.456 38.68 323.458 38.68 323.46 38.68C323.462 38.68 323.464 38.68 323.466 38.68C323.468 38.68 323.471 38.68 323.473 38.68C323.475 38.68 323.477 38.68 323.479 38.68C323.481 38.68 323.483 38.68 323.485 38.68C323.487 38.68 323.489 38.68 323.491 38.68C323.493 38.68 323.495 38.68 323.497 38.68C323.499 38.68 323.501 38.68 323.503 38.68C323.505 38.68 323.508 38.68 323.51 38.68C323.512 38.68 323.514 38.68 323.516 38.68C323.518 38.68 323.52 38.68 323.522 38.68C323.524 38.68 323.526 38.68 323.528 38.68C323.53 38.68 323.532 38.68 323.534 38.68C323.536 38.68 323.539 38.68 323.541 38.68C323.543 38.68 323.545 38.68 323.547 38.68C323.549 38.68 323.551 38.68 323.553 38.68C323.555 38.68 323.557 38.68 323.559 38.68C323.561 38.68 323.563 38.68 323.565 38.68C323.567 38.68 323.569 38.68 323.572 38.68C323.574 38.68 323.576 38.68 323.578 38.68C323.58 38.68 323.582 38.68 323.584 38.68C323.586 38.68 323.588 38.68 323.59 38.68C323.592 38.68 323.594 38.68 323.596 38.68C323.598 38.68 323.601 38.68 323.603 38.68C323.605 38.68 323.607 38.68 323.609 38.68C323.611 38.68 323.613 38.68 323.615 38.68C323.617 38.68 323.619 38.68 323.621 38.68C323.623 38.68 323.625 38.68 323.627 38.68C323.63 38.68 323.632 38.68 323.634 38.68C323.636 38.68 323.638 38.68 323.64 38.68C323.642 38.68 323.644 38.68 323.646 38.68C323.648 38.68 323.65 38.68 323.652 38.68C323.654 38.68 323.657 38.68 323.659 38.68C323.661 38.68 323.663 38.68 323.665 38.68C323.667 38.68 323.669 38.68 323.671 38.68C323.673 38.68 323.675 38.68 323.677 38.68C323.679 38.68 323.681 38.68 323.684 38.68C323.686 38.68 323.688 38.68 323.69 38.68C323.692 38.68 323.694 38.68 323.696 38.68C323.698 38.68 323.7 38.68 323.702 38.68C323.704 38.68 323.706 38.68 323.708 38.68C323.711 38.68 323.713 38.68 323.715 38.68C323.717 38.68 323.719 38.68 323.721 38.68V34.68C323.719 34.68 323.717 34.68 323.715 34.68C323.713 34.68 323.711 34.68 323.708 34.68C323.706 34.68 323.704 34.68 323.702 34.68C323.7 34.68 323.698 34.68 323.696 34.68C323.694 34.68 323.692 34.68 323.69 34.68C323.688 34.68 323.686 34.68 323.684 34.68C323.681 34.68 323.679 34.68 323.677 34.68C323.675 34.68 323.673 34.68 323.671 34.68C323.669 34.68 323.667 34.68 323.665 34.68C323.663 34.68 323.661 34.68 323.659 34.68C323.657 34.68 323.654 34.68 323.652 34.68C323.65 34.68 323.648 34.68 323.646 34.68C323.644 34.68 323.642 34.68 323.64 34.68C323.638 34.68 323.636 34.68 323.634 34.68C323.632 34.68 323.63 34.68 323.627 34.68C323.625 34.68 323.623 34.68 323.621 34.68C323.619 34.68 323.617 34.68 323.615 34.68C323.613 34.68 323.611 34.68 323.609 34.68C323.607 34.68 323.605 34.68 323.603 34.68C323.601 34.68 323.598 34.68 323.596 34.68C323.594 34.68 323.592 34.68 323.59 34.68C323.588 34.68 323.586 34.68 323.584 34.68C323.582 34.68 323.58 34.68 323.578 34.68C323.576 34.68 323.574 34.68 323.572 34.68C323.569 34.68 323.567 34.68 323.565 34.68C323.563 34.68 323.561 34.68 323.559 34.68C323.557 34.68 323.555 34.68 323.553 34.68C323.551 34.68 323.549 34.68 323.547 34.68C323.545 34.68 323.543 34.68 323.541 34.68C323.539 34.68 323.536 34.68 323.534 34.68C323.532 34.68 323.53 34.68 323.528 34.68C323.526 34.68 323.524 34.68 323.522 34.68C323.52 34.68 323.518 34.68 323.516 34.68C323.514 34.68 323.512 34.68 323.51 34.68C323.508 34.68 323.505 34.68 323.503 34.68C323.501 34.68 323.499 34.68 323.497 34.68C323.495 34.68 323.493 34.68 323.491 34.68C323.489 34.68 323.487 34.68 323.485 34.68C323.483 34.68 323.481 34.68 323.479 34.68C323.477 34.68 323.475 34.68 323.473 34.68C323.471 34.68 323.468 34.68 323.466 34.68C323.464 34.68 323.462 34.68 323.46 34.68C323.458 34.68 323.456 34.68 323.454 34.68C323.452 34.68 323.45 34.68 323.448 34.68C323.446 34.68 323.444 34.68 323.442 34.68C323.44 34.68 323.438 34.68 323.436 34.68C323.434 34.68 323.431 34.68 323.429 34.68C323.427 34.68 323.425 34.68 323.423 34.68C323.421 34.68 323.419 34.68 323.417 34.68C323.415 34.68 323.413 34.68 323.411 34.68C323.409 34.68 323.407 34.68 323.405 34.68C323.403 34.68 323.401 34.68 323.399 34.68C323.397 34.68 323.395 34.68 323.392 34.68C323.39 34.68 323.388 34.68 323.386 34.68C323.384 34.68 323.382 34.68 323.38 34.68C323.378 34.68 323.376 34.68 323.374 34.68C323.372 34.68 323.37 34.68 323.368 34.68C323.366 34.68 323.364 34.68 323.362 34.68C323.36 34.68 323.358 34.68 323.356 34.68C323.354 34.68 323.352 34.68 323.35 34.68C323.347 34.68 323.345 34.68 323.343 34.68C323.341 34.68 323.339 34.68 323.337 34.68C323.335 34.68 323.333 34.68 323.331 34.68C323.329 34.68 323.327 34.68 323.325 34.68C323.323 34.68 323.321 34.68 323.319 34.68C323.317 34.68 323.315 34.68 323.313 34.68C323.311 34.68 323.309 34.68 323.307 34.68C323.305 34.68 323.303 34.68 323.301 34.68C323.298 34.68 323.296 34.68 323.294 34.68C323.292 34.68 323.29 34.68 323.288 34.68C323.286 34.68 323.284 34.68 323.282 34.68C323.28 34.68 323.278 34.68 323.276 34.68C323.274 34.68 323.272 34.68 323.27 34.68C323.268 34.68 323.266 34.68 323.264 34.68C323.262 34.68 323.26 34.68 323.258 34.68C323.256 34.68 323.254 34.68 323.252 34.68C323.25 34.68 323.248 34.68 323.246 34.68C323.243 34.68 323.241 34.68 323.239 34.68C323.237 34.68 323.235 34.68 323.233 34.68C323.231 34.68 323.229 34.68 323.227 34.68C323.225 34.68 323.223 34.68 323.221 34.68C323.219 34.68 323.217 34.68 323.215 34.68C323.213 34.68 323.211 34.68 323.209 34.68C323.207 34.68 323.205 34.68 323.203 34.68C323.201 34.68 323.199 34.68 323.197 34.68C323.195 34.68 323.193 34.68 323.191 34.68C323.189 34.68 323.187 34.68 323.185 34.68C323.183 34.68 323.181 34.68 323.179 34.68C323.177 34.68 323.174 34.68 323.172 34.68C323.17 34.68 323.168 34.68 323.166 34.68C323.164 34.68 323.162 34.68 323.16 34.68C323.158 34.68 323.156 34.68 323.154 34.68C323.152 34.68 323.15 34.68 323.148 34.68C323.146 34.68 323.144 34.68 323.142 34.68C323.14 34.68 323.138 34.68 323.136 34.68C323.134 34.68 323.132 34.68 323.13 34.68C323.128 34.68 323.126 34.68 323.124 34.68C323.122 34.68 323.12 34.68 323.118 34.68C323.116 34.68 323.114 34.68 323.112 34.68C323.11 34.68 323.108 34.68 323.106 34.68C323.104 34.68 323.102 34.68 323.1 34.68C323.098 34.68 323.096 34.68 323.094 34.68C323.092 34.68 323.09 34.68 323.088 34.68C323.086 34.68 323.084 34.68 323.082 34.68C323.08 34.68 323.078 34.68 323.076 34.68C323.074 34.68 323.072 34.68 323.069 34.68C323.067 34.68 323.065 34.68 323.063 34.68C323.061 34.68 323.059 34.68 323.057 34.68C323.055 34.68 323.053 34.68 323.051 34.68C323.049 34.68 323.047 34.68 323.045 34.68C323.043 34.68 323.041 34.68 323.039 34.68C323.037 34.68 323.035 34.68 323.033 34.68C323.031 34.68 323.029 34.68 323.027 34.68C323.025 34.68 323.023 34.68 323.021 34.68C323.019 34.68 323.017 34.68 323.015 34.68C323.013 34.68 323.011 34.68 323.009 34.68C323.007 34.68 323.005 34.68 323.003 34.68C323.001 34.68 322.999 34.68 322.997 34.68C322.995 34.68 322.993 34.68 322.991 34.68C322.989 34.68 322.987 34.68 322.985 34.68C322.983 34.68 322.981 34.68 322.979 34.68C322.977 34.68 322.975 34.68 322.973 34.68C322.971 34.68 322.969 34.68 322.967 34.68C322.965 34.68 322.963 34.68 322.961 34.68C322.959 34.68 322.957 34.68 322.955 34.68C322.953 34.68 322.951 34.68 322.949 34.68C322.947 34.68 322.945 34.68 322.943 34.68C322.941 34.68 322.939 34.68 322.937 34.68C322.935 34.68 322.933 34.68 322.931 34.68C322.929 34.68 322.927 34.68 322.925 34.68C322.923 34.68 322.921 34.68 322.919 34.68C322.917 34.68 322.915 34.68 322.913 34.68C322.911 34.68 322.909 34.68 322.907 34.68C322.905 34.68 322.903 34.68 322.901 34.68C322.899 34.68 322.897 34.68 322.895 34.68C322.893 34.68 322.891 34.68 322.889 34.68C322.887 34.68 322.885 34.68 322.883 34.68C322.881 34.68 322.879 34.68 322.877 34.68C322.875 34.68 322.873 34.68 322.871 34.68C322.869 34.68 322.867 34.68 322.865 34.68C322.863 34.68 322.861 34.68 322.859 34.68C322.857 34.68 322.855 34.68 322.853 34.68C322.851 34.68 322.849 34.68 322.847 34.68C322.845 34.68 322.843 34.68 322.841 34.68C322.839 34.68 322.837 34.68 322.835 34.68C322.833 34.68 322.831 34.68 322.829 34.68C322.827 34.68 322.825 34.68 322.823 34.68C322.821 34.68 322.819 34.68 322.817 34.68C322.815 34.68 322.813 34.68 322.811 34.68C322.809 34.68 322.807 34.68 322.805 34.68C322.803 34.68 322.802 34.68 322.8 34.68C322.798 34.68 322.796 34.68 322.794 34.68C322.792 34.68 322.79 34.68 322.788 34.68C322.786 34.68 322.784 34.68 322.782 34.68C322.78 34.68 322.778 34.68 322.776 34.68C322.774 34.68 322.772 34.68 322.77 34.68C322.768 34.68 322.766 34.68 322.764 34.68C322.762 34.68 322.76 34.68 322.758 34.68C322.756 34.68 322.754 34.68 322.752 34.68C322.75 34.68 322.748 34.68 322.746 34.68C322.744 34.68 322.742 34.68 322.74 34.68C322.738 34.68 322.736 34.68 322.734 34.68C322.732 34.68 322.73 34.68 322.728 34.68C322.726 34.68 322.724 34.68 322.722 34.68C322.72 34.68 322.718 34.68 322.716 34.68C322.714 34.68 322.712 34.68 322.71 34.68C322.708 34.68 322.706 34.68 322.704 34.68C322.703 34.68 322.701 34.68 322.699 34.68C322.697 34.68 322.695 34.68 322.693 34.68C322.691 34.68 322.689 34.68 322.687 34.68C322.685 34.68 322.683 34.68 322.681 34.68C322.679 34.68 322.677 34.68 322.675 34.68C322.673 34.68 322.671 34.68 322.669 34.68C322.667 34.68 322.665 34.68 322.663 34.68C322.661 34.68 322.659 34.68 322.657 34.68C322.655 34.68 322.653 34.68 322.651 34.68C322.649 34.68 322.647 34.68 322.645 34.68C322.643 34.68 322.641 34.68 322.639 34.68C322.637 34.68 322.635 34.68 322.634 34.68C322.632 34.68 322.63 34.68 322.628 34.68C322.626 34.68 322.624 34.68 322.622 34.68C322.62 34.68 322.618 34.68 322.616 34.68C322.614 34.68 322.612 34.68 322.61 34.68C322.608 34.68 322.606 34.68 322.604 34.68C322.602 34.68 322.6 34.68 322.598 34.68C322.596 34.68 322.594 34.68 322.592 34.68C322.59 34.68 322.588 34.68 322.586 34.68C322.584 34.68 322.582 34.68 322.581 34.68C322.579 34.68 322.577 34.68 322.575 34.68C322.573 34.68 322.571 34.68 322.569 34.68C322.567 34.68 322.565 34.68 322.563 34.68C322.561 34.68 322.559 34.68 322.557 34.68C322.555 34.68 322.553 34.68 322.551 34.68C322.549 34.68 322.547 34.68 322.545 34.68C322.543 34.68 322.541 34.68 322.539 34.68C322.537 34.68 322.535 34.68 322.534 34.68C322.532 34.68 322.53 34.68 322.528 34.68C322.526 34.68 322.524 34.68 322.522 34.68C322.52 34.68 322.518 34.68 322.516 34.68C322.514 34.68 322.512 34.68 322.51 34.68C322.508 34.68 322.506 34.68 322.504 34.68C322.502 34.68 322.5 34.68 322.498 34.68C322.496 34.68 322.494 34.68 322.492 34.68C322.491 34.68 322.489 34.68 322.487 34.68C322.485 34.68 322.483 34.68 322.481 34.68C322.479 34.68 322.477 34.68 322.475 34.68C322.473 34.68 322.471 34.68 322.469 34.68C322.467 34.68 322.465 34.68 322.463 34.68C322.461 34.68 322.459 34.68 322.457 34.68C322.455 34.68 322.454 34.68 322.452 34.68C322.45 34.68 322.448 34.68 322.446 34.68C322.444 34.68 322.442 34.68 322.44 34.68C322.438 34.68 322.436 34.68 322.434 34.68C322.432 34.68 322.43 34.68 322.428 34.68C322.426 34.68 322.424 34.68 322.422 34.68C322.42 34.68 322.419 34.68 322.417 34.68C322.415 34.68 322.413 34.68 322.411 34.68C322.409 34.68 322.407 34.68 322.405 34.68C322.403 34.68 322.401 34.68 322.399 34.68C322.397 34.68 322.395 34.68 322.393 34.68C322.391 34.68 322.389 34.68 322.387 34.68C322.385 34.68 322.384 34.68 322.382 34.68C322.38 34.68 322.378 34.68 322.376 34.68C322.374 34.68 322.372 34.68 322.37 34.68C322.368 34.68 322.366 34.68 322.364 34.68C322.362 34.68 322.36 34.68 322.358 34.68C322.356 34.68 322.354 34.68 322.353 34.68C322.351 34.68 322.349 34.68 322.347 34.68C322.345 34.68 322.343 34.68 322.341 34.68C322.339 34.68 322.337 34.68 322.335 34.68C322.333 34.68 322.331 34.68 322.329 34.68C322.327 34.68 322.326 34.68 322.324 34.68C322.322 34.68 322.32 34.68 322.318 34.68C322.316 34.68 322.314 34.68 322.312 34.68C322.31 34.68 322.308 34.68 322.306 34.68C322.304 34.68 322.302 34.68 322.3 34.68C322.298 34.68 322.297 34.68 322.295 34.68C322.293 34.68 322.291 34.68 322.289 34.68C322.287 34.68 322.285 34.68 322.283 34.68C322.281 34.68 322.279 34.68 322.277 34.68C322.275 34.68 322.273 34.68 322.271 34.68C322.27 34.68 322.268 34.68 322.266 34.68C322.264 34.68 322.262 34.68 322.26 34.68C322.258 34.68 322.256 34.68 322.254 34.68C322.252 34.68 322.25 34.68 322.248 34.68C322.246 34.68 322.245 34.68 322.243 34.68C322.241 34.68 322.239 34.68 322.237 34.68C322.235 34.68 322.233 34.68 322.231 34.68C322.229 34.68 322.227 34.68 322.225 34.68C322.223 34.68 322.221 34.68 322.22 34.68C322.218 34.68 322.216 34.68 322.214 34.68C322.212 34.68 322.21 34.68 322.208 34.68C322.206 34.68 322.204 34.68 322.202 34.68C322.2 34.68 322.198 34.68 322.197 34.68C322.195 34.68 322.193 34.68 322.191 34.68C322.189 34.68 322.187 34.68 322.185 34.68C322.183 34.68 322.181 34.68 322.179 34.68C322.177 34.68 322.175 34.68 322.173 34.68C322.172 34.68 322.17 34.68 322.168 34.68C322.166 34.68 322.164 34.68 322.162 34.68C322.16 34.68 322.158 34.68 322.156 34.68C322.154 34.68 322.152 34.68 322.151 34.68C322.149 34.68 322.147 34.68 322.145 34.68C322.143 34.68 322.141 34.68 322.139 34.68C322.137 34.68 322.135 34.68 322.133 34.68C322.131 34.68 322.13 34.68 322.128 34.68C322.126 34.68 322.124 34.68 322.122 34.68C322.12 34.68 322.118 34.68 322.116 34.68C322.114 34.68 322.112 34.68 322.11 34.68C322.109 34.68 322.107 34.68 322.105 34.68C322.103 34.68 322.101 34.68 322.099 34.68C322.097 34.68 322.095 34.68 322.093 34.68C322.091 34.68 322.089 34.68 322.088 34.68C322.086 34.68 322.084 34.68 322.082 34.68C322.08 34.68 322.078 34.68 322.076 34.68C322.074 34.68 322.072 34.68 322.07 34.68C322.068 34.68 322.067 34.68 322.065 34.68C322.063 34.68 322.061 34.68 322.059 34.68C322.057 34.68 322.055 34.68 322.053 34.68C322.051 34.68 322.049 34.68 322.048 34.68C322.046 34.68 322.044 34.68 322.042 34.68C322.04 34.68 322.038 34.68 322.036 34.68C322.034 34.68 322.032 34.68 322.03 34.68C322.029 34.68 322.027 34.68 322.025 34.68C322.023 34.68 322.021 34.68 322.019 34.68C322.017 34.68 322.015 34.68 322.013 34.68C322.011 34.68 322.01 34.68 322.008 34.68C322.006 34.68 322.004 34.68 322.002 34.68C322 34.68 321.998 34.68 321.996 34.68C321.994 34.68 321.993 34.68 321.991 34.68C321.989 34.68 321.987 34.68 321.985 34.68C321.983 34.68 321.981 34.68 321.979 34.68C321.977 34.68 321.975 34.68 321.974 34.68C321.972 34.68 321.97 34.68 321.968 34.68C321.966 34.68 321.964 34.68 321.962 34.68C321.96 34.68 321.958 34.68 321.957 34.68C321.955 34.68 321.953 34.68 321.951 34.68C321.949 34.68 321.947 34.68 321.945 34.68C321.943 34.68 321.941 34.68 321.94 34.68C321.938 34.68 321.936 34.68 321.934 34.68C321.932 34.68 321.93 34.68 321.928 34.68C321.926 34.68 321.924 34.68 321.923 34.68C321.921 34.68 321.919 34.68 321.917 34.68C321.915 34.68 321.913 34.68 321.911 34.68C321.909 34.68 321.907 34.68 321.906 34.68C321.904 34.68 321.902 34.68 321.9 34.68C321.898 34.68 321.896 34.68 321.894 34.68C321.892 34.68 321.891 34.68 321.889 34.68C321.887 34.68 321.885 34.68 321.883 34.68C321.881 34.68 321.879 34.68 321.877 34.68C321.875 34.68 321.874 34.68 321.872 34.68C321.87 34.68 321.868 34.68 321.866 34.68C321.864 34.68 321.862 34.68 321.86 34.68C321.859 34.68 321.857 34.68 321.855 34.68C321.853 34.68 321.851 34.68 321.849 34.68C321.847 34.68 321.845 34.68 321.844 34.68C321.842 34.68 321.84 34.68 321.838 34.68C321.836 34.68 321.834 34.68 321.832 34.68C321.83 34.68 321.828 34.68 321.827 34.68C321.825 34.68 321.823 34.68 321.821 34.68C321.819 34.68 321.817 34.68 321.815 34.68C321.814 34.68 321.812 34.68 321.81 34.68C321.808 34.68 321.806 34.68 321.804 34.68C321.802 34.68 321.8 34.68 321.799 34.68C321.797 34.68 321.795 34.68 321.793 34.68C321.791 34.68 321.789 34.68 321.787 34.68C321.785 34.68 321.784 34.68 321.782 34.68C321.78 34.68 321.778 34.68 321.776 34.68C321.774 34.68 321.772 34.68 321.77 34.68C321.769 34.68 321.767 34.68 321.765 34.68C321.763 34.68 321.761 34.68 321.759 34.68C321.757 34.68 321.755 34.68 321.754 34.68C321.752 34.68 321.75 34.68 321.748 34.68C321.746 34.68 321.744 34.68 321.742 34.68C321.741 34.68 321.739 34.68 321.737 34.68C321.735 34.68 321.733 34.68 321.731 34.68C321.729 34.68 321.728 34.68 321.726 34.68C321.724 34.68 321.722 34.68 321.72 34.68C321.718 34.68 321.716 34.68 321.714 34.68C321.713 34.68 321.711 34.68 321.709 34.68C321.707 34.68 321.705 34.68 321.703 34.68C321.701 34.68 321.7 34.68 321.698 34.68C321.696 34.68 321.694 34.68 321.692 34.68C321.69 34.68 321.688 34.68 321.687 34.68C321.685 34.68 321.683 34.68 321.681 34.68C321.679 34.68 321.677 34.68 321.675 34.68C321.674 34.68 321.672 34.68 321.67 34.68C321.668 34.68 321.666 34.68 321.664 34.68C321.662 34.68 321.661 34.68 321.659 34.68C321.657 34.68 321.655 34.68 321.653 34.68C321.651 34.68 321.649 34.68 321.648 34.68C321.646 34.68 321.644 34.68 321.642 34.68C321.64 34.68 321.638 34.68 321.636 34.68C321.635 34.68 321.633 34.68 321.631 34.68C321.629 34.68 321.627 34.68 321.625 34.68C321.623 34.68 321.622 34.68 321.62 34.68C321.618 34.68 321.616 34.68 321.614 34.68C321.612 34.68 321.611 34.68 321.609 34.68C321.607 34.68 321.605 34.68 321.603 34.68C321.601 34.68 321.599 34.68 321.598 34.68C321.596 34.68 321.594 34.68 321.592 34.68C321.59 34.68 321.588 34.68 321.586 34.68C321.585 34.68 321.583 34.68 321.581 34.68C321.579 34.68 321.577 34.68 321.575 34.68C321.574 34.68 321.572 34.68 321.57 34.68C321.568 34.68 321.566 34.68 321.564 34.68C321.562 34.68 321.561 34.68 321.559 34.68C321.557 34.68 321.555 34.68 321.553 34.68C321.551 34.68 321.55 34.68 321.548 34.68C321.546 34.68 321.544 34.68 321.542 34.68C321.54 34.68 321.539 34.68 321.537 34.68C321.535 34.68 321.533 34.68 321.531 34.68C321.529 34.68 321.527 34.68 321.526 34.68C321.524 34.68 321.522 34.68 321.52 34.68C321.518 34.68 321.516 34.68 321.515 34.68C321.513 34.68 321.511 34.68 321.509 34.68C321.507 34.68 321.505 34.68 321.504 34.68C321.502 34.68 321.5 34.68 321.498 34.68C321.496 34.68 321.494 34.68 321.493 34.68C321.491 34.68 321.489 34.68 321.487 34.68C321.485 34.68 321.483 34.68 321.482 34.68C321.48 34.68 321.478 34.68 321.476 34.68C321.474 34.68 321.472 34.68 321.47 34.68C321.469 34.68 321.467 34.68 321.465 34.68C321.463 34.68 321.461 34.68 321.46 34.68C321.458 34.68 321.456 34.68 321.454 34.68C321.452 34.68 321.45 34.68 321.449 34.68C321.447 34.68 321.445 34.68 321.443 34.68C321.441 34.68 321.439 34.68 321.438 34.68C321.436 34.68 321.434 34.68 321.432 34.68C321.43 34.68 321.428 34.68 321.427 34.68C321.425 34.68 321.423 34.68 321.421 34.68C321.419 34.68 321.417 34.68 321.416 34.68C321.414 34.68 321.412 34.68 321.41 34.68C321.408 34.68 321.406 34.68 321.405 34.68C321.403 34.68 321.401 34.68 321.399 34.68C321.397 34.68 321.395 34.68 321.394 34.68C321.392 34.68 321.39 34.68 321.388 34.68C321.386 34.68 321.385 34.68 321.383 34.68C321.381 34.68 321.379 34.68 321.377 34.68C321.375 34.68 321.374 34.68 321.372 34.68C321.37 34.68 321.368 34.68 321.366 34.68C321.365 34.68 321.363 34.68 321.361 34.68C321.359 34.68 321.357 34.68 321.355 34.68C321.354 34.68 321.352 34.68 321.35 34.68C321.348 34.68 321.346 34.68 321.344 34.68C321.343 34.68 321.341 34.68 321.339 34.68C321.337 34.68 321.335 34.68 321.334 34.68C321.332 34.68 321.33 34.68 321.328 34.68C321.326 34.68 321.324 34.68 321.323 34.68C321.321 34.68 321.319 34.68 321.317 34.68C321.315 34.68 321.314 34.68 321.312 34.68C321.31 34.68 321.308 34.68 321.306 34.68C321.305 34.68 321.303 34.68 321.301 34.68C321.299 34.68 321.297 34.68 321.295 34.68C321.294 34.68 321.292 34.68 321.29 34.68C321.288 34.68 321.286 34.68 321.285 34.68C321.283 34.68 321.281 34.68 321.279 34.68C321.277 34.68 321.276 34.68 321.274 34.68C321.272 34.68 321.27 34.68 321.268 34.68C321.266 34.68 321.265 34.68 321.263 34.68C321.261 34.68 321.259 34.68 321.257 34.68C321.256 34.68 321.254 34.68 321.252 34.68C321.25 34.68 321.248 34.68 321.247 34.68C321.245 34.68 321.243 34.68 321.241 34.68C321.239 34.68 321.238 34.68 321.236 34.68C321.234 34.68 321.232 34.68 321.23 34.68C321.229 34.68 321.227 34.68 321.225 34.68C321.223 34.68 321.221 34.68 321.219 34.68C321.218 34.68 321.216 34.68 321.214 34.68C321.212 34.68 321.21 34.68 321.209 34.68C321.207 34.68 321.205 34.68 321.203 34.68C321.201 34.68 321.2 34.68 321.198 34.68C321.196 34.68 321.194 34.68 321.192 34.68C321.191 34.68 321.189 34.68 321.187 34.68C321.185 34.68 321.183 34.68 321.182 34.68C321.18 34.68 321.178 34.68 321.176 34.68C321.174 34.68 321.173 34.68 321.171 34.68C321.169 34.68 321.167 34.68 321.165 34.68C321.164 34.68 321.162 34.68 321.16 34.68C321.158 34.68 321.156 34.68 321.155 34.68C321.153 34.68 321.151 34.68 321.149 34.68C321.147 34.68 321.146 34.68 321.144 34.68C321.142 34.68 321.14 34.68 321.139 34.68C321.137 34.68 321.135 34.68 321.133 34.68C321.131 34.68 321.13 34.68 321.128 34.68C321.126 34.68 321.124 34.68 321.122 34.68C321.121 34.68 321.119 34.68 321.117 34.68C321.115 34.68 321.113 34.68 321.112 34.68C321.11 34.68 321.108 34.68 321.106 34.68C321.104 34.68 321.103 34.68 321.101 34.68C321.099 34.68 321.097 34.68 321.096 34.68C321.094 34.68 321.092 34.68 321.09 34.68C321.088 34.68 321.087 34.68 321.085 34.68C321.083 34.68 321.081 34.68 321.079 34.68C321.078 34.68 321.076 34.68 321.074 34.68C321.072 34.68 321.07 34.68 321.069 34.68C321.067 34.68 321.065 34.68 321.063 34.68C321.062 34.68 321.06 34.68 321.058 34.68C321.056 34.68 321.054 34.68 321.053 34.68C321.051 34.68 321.049 34.68 321.047 34.68C321.046 34.68 321.044 34.68 321.042 34.68C321.04 34.68 321.038 34.68 321.037 34.68C321.035 34.68 321.033 34.68 321.031 34.68C321.029 34.68 321.028 34.68 321.026 34.68C321.024 34.68 321.022 34.68 321.021 34.68C321.019 34.68 321.017 34.68 321.015 34.68C321.013 34.68 321.012 34.68 321.01 34.68C321.008 34.68 321.006 34.68 321.005 34.68C321.003 34.68 321.001 34.68 320.999 34.68C320.997 34.68 320.996 34.68 320.994 34.68C320.992 34.68 320.99 34.68 320.989 34.68C320.987 34.68 320.985 34.68 320.983 34.68C320.981 34.68 320.98 34.68 320.978 34.68C320.976 34.68 320.974 34.68 320.973 34.68C320.971 34.68 320.969 34.68 320.967 34.68C320.965 34.68 320.964 34.68 320.962 34.68C320.96 34.68 320.958 34.68 320.957 34.68C320.955 34.68 320.953 34.68 320.951 34.68C320.95 34.68 320.948 34.68 320.946 34.68C320.944 34.68 320.942 34.68 320.941 34.68C320.939 34.68 320.937 34.68 320.935 34.68C320.934 34.68 320.932 34.68 320.93 34.68C320.928 34.68 320.927 34.68 320.925 34.68C320.923 34.68 320.921 34.68 320.919 34.68C320.918 34.68 320.916 34.68 320.914 34.68C320.912 34.68 320.911 34.68 320.909 34.68C320.907 34.68 320.905 34.68 320.904 34.68C320.902 34.68 320.9 34.68 320.898 34.68C320.897 34.68 320.895 34.68 320.893 34.68C320.891 34.68 320.889 34.68 320.888 34.68C320.886 34.68 320.884 34.68 320.882 34.68C320.881 34.68 320.879 34.68 320.877 34.68C320.875 34.68 320.874 34.68 320.872 34.68C320.87 34.68 320.868 34.68 320.867 34.68C320.865 34.68 320.863 34.68 320.861 34.68C320.859 34.68 320.858 34.68 320.856 34.68C320.854 34.68 320.852 34.68 320.851 34.68C320.849 34.68 320.847 34.68 320.845 34.68C320.844 34.68 320.842 34.68 320.84 34.68C320.838 34.68 320.837 34.68 320.835 34.68C320.833 34.68 320.831 34.68 320.83 34.68C320.828 34.68 320.826 34.68 320.824 34.68C320.823 34.68 320.821 34.68 320.819 34.68C320.817 34.68 320.816 34.68 320.814 34.68C320.812 34.68 320.81 34.68 320.809 34.68C320.807 34.68 320.805 34.68 320.803 34.68C320.802 34.68 320.8 34.68 320.798 34.68C320.796 34.68 320.795 34.68 320.793 34.68C320.791 34.68 320.789 34.68 320.788 34.68C320.786 34.68 320.784 34.68 320.782 34.68C320.78 34.68 320.779 34.68 320.777 34.68V38.68ZM323.801 38.6784C324.865 38.6358 325.973 38.5932 327.123 38.5506L326.975 34.5534C325.821 34.5961 324.71 34.6388 323.641 34.6816L323.801 38.6784ZM327.123 38.5506C328.275 38.508 329.427 38.4653 330.579 38.4226L330.431 34.4254C329.279 34.468 328.127 34.5107 326.975 34.5534L327.123 38.5506ZM330.576 38.4227C331.802 38.3789 333.342 38.292 335.188 38.1632L334.91 34.1728C333.087 34.3 331.597 34.3837 330.434 34.4253L330.576 38.4227ZM335.185 38.1634C337.056 38.0358 339.377 37.8867 342.148 37.7162L341.902 33.7238C339.126 33.8946 336.796 34.0442 334.913 34.1726L335.185 38.1634ZM340.025 35.72V44.36H344.025V35.72H340.025ZM355.152 45V47H356.558L357.034 45.6774L355.152 45ZM342.672 45L340.802 44.2919L339.777 47H342.672V45ZM359.633 0.199997V-1.8H358.251L357.762 -0.508103L359.633 0.199997ZM372.432 0.199997L374.303 -0.508103L373.814 -1.8H372.432V0.199997ZM389.393 45V47H392.288L391.263 44.2919L389.393 45ZM376.913 45L375.031 45.6774L375.507 47H376.913V45ZM374.033 37L375.914 36.3226L375.438 35H374.033V37ZM358.033 37V35H356.627L356.151 36.3226L358.033 37ZM360.913 28.68L359.019 28.0355L358.119 30.68H360.913V28.68ZM371.152 28.68V30.68H373.946L373.046 28.0355L371.152 28.68ZM366.033 13.64L367.926 12.9955L366.033 7.4339L364.139 12.9955L366.033 13.64ZM355.152 43H342.672V47H355.152V43ZM344.543 45.7081L361.503 0.908096L357.762 -0.508103L340.802 44.2919L344.543 45.7081ZM359.633 2.2H372.432V-1.8H359.633V2.2ZM370.562 0.908096L387.522 45.7081L391.263 44.2919L374.303 -0.508103L370.562 0.908096ZM389.393 43H376.913V47H389.393V43ZM378.794 44.3226L375.914 36.3226L372.151 37.6774L375.031 45.6774L378.794 44.3226ZM374.033 35H358.033V39H374.033V35ZM356.151 36.3226L353.271 44.3226L357.034 45.6774L359.914 37.6774L356.151 36.3226ZM360.913 30.68H371.152V26.68H360.913V30.68ZM373.046 28.0355L367.926 12.9955L364.139 14.2845L369.259 29.3245L373.046 28.0355ZM364.139 12.9955L359.019 28.0355L362.806 29.3245L367.926 14.2845L364.139 12.9955Z" fill="#2771FF"/>
</svg>
