<svg width="32" height="32" viewBox="0 0 32 32" fill="none" xmlns="http://www.w3.org/2000/svg">
<path fill-rule="evenodd" clip-rule="evenodd" d="M29 16C29 23.1797 23.1797 29 16 29C12.5949 29 9.49554 27.6908 7.17785 25.5484L25.842 7.50639C27.8098 9.78461 29 12.7533 29 16ZM5.22012 23.2683L23.6292 5.47289C21.4865 3.91734 18.8504 3 16 3C8.8203 3 3 8.8203 3 16C3 18.6923 3.81845 21.1935 5.22012 23.2683ZM32 16C32 24.8366 24.8366 32 16 32C7.16344 32 0 24.8366 0 16C0 7.16344 7.16344 0 16 0C24.8366 0 32 7.16344 32 16Z" fill="#D9D9D9"/>
</svg>
