<svg width="14" height="14" viewBox="0 0 14 14" fill="none" xmlns="http://www.w3.org/2000/svg">
<path fill-rule="evenodd" clip-rule="evenodd" d="M0.636292 0.636169C0.167657 1.1048 0.167655 1.8646 0.636284 2.33323L5.30324 7.00019L0.636483 11.6669C0.167847 12.1356 0.167845 12.8954 0.636473 13.364C1.1051 13.8326 1.8649 13.8326 2.33354 13.364L7.0003 8.69725L11.6671 13.3641C12.1358 13.8327 12.8956 13.8327 13.3642 13.3641C13.8328 12.8955 13.8328 12.1357 13.3642 11.667L8.69735 7.00019L13.3644 2.33316C13.833 1.86452 13.833 1.10472 13.3644 0.63609C12.8958 0.167462 12.136 0.167465 11.6673 0.6361L7.00029 5.30314L2.33334 0.636182C1.86471 0.167552 1.10491 0.167555 0.636292 0.636169Z" fill="#D9D9D9"/>
</svg>
