<svg width="60" height="60" viewBox="0 0 60 60" fill="none" xmlns="http://www.w3.org/2000/svg">
<path fill-rule="evenodd" clip-rule="evenodd" d="M56 30C56 44.3594 44.3594 56 30 56C15.6406 56 4 44.3594 4 30C4 15.6406 15.6406 4 30 4C44.3594 4 56 15.6406 56 30ZM60 30C60 46.5685 46.5685 60 30 60C13.4315 60 0 46.5685 0 30C0 13.4315 13.4315 0 30 0C46.5685 0 60 13.4315 60 30ZM26.0714 21.6425V38.4514L38.7678 30.2063L26.0714 21.6425ZM22.5 41.5107C22.5 41.5524 22.5014 41.5938 22.5042 41.6348C22.4824 42.0022 22.5735 42.3796 22.7894 42.712C23.3265 43.5391 24.4325 43.7742 25.2596 43.237L42.9064 31.777C43.6658 31.2839 43.9261 30.3112 43.5479 29.5151C43.4216 29.1826 43.1949 28.8845 42.8776 28.6705L25.2871 16.8055C24.4695 16.254 23.3596 16.4698 22.8081 17.2874C22.5672 17.6446 22.4727 18.0577 22.5109 18.4555C22.5037 18.5206 22.5 18.5866 22.5 18.6536V41.5107Z" fill="white"/>
</svg>
