<svg width="29" height="29" viewBox="0 0 29 29" fill="none" xmlns="http://www.w3.org/2000/svg">
<path fill-rule="evenodd" clip-rule="evenodd" d="M3.00018 10.2698C3.00018 14.2848 6.25497 17.5396 10.27 17.5396C14.2849 17.5396 17.5397 14.2848 17.5397 10.2698C17.5397 6.25479 14.2849 3 10.27 3C6.25497 3 3.00018 6.25479 3.00018 10.2698ZM0.000179291 10.2698C0.000179291 15.9416 4.59812 20.5396 10.27 20.5396C12.5226 20.5396 14.6058 19.8143 16.2988 18.5846L27.0257 28.7865L29 26.5278L18.4438 16.4881C19.7589 14.7622 20.5397 12.6072 20.5397 10.2698C20.5397 4.59794 15.9418 0 10.27 0C4.59812 0 0.000179291 4.59794 0.000179291 10.2698Z" fill="#D1D1D1"/>
</svg>
