<svg width="40" height="40" viewBox="0 0 40 40" fill="none" xmlns="http://www.w3.org/2000/svg">
<path fill-rule="evenodd" clip-rule="evenodd" d="M36 20C36 28.8366 28.8366 36 20 36C11.1634 36 4 28.8366 4 20C4 11.1634 11.1634 4 20 4C28.8366 4 36 11.1634 36 20ZM40 20C40 31.0457 31.0457 40 20 40C8.9543 40 0 31.0457 0 20C0 8.9543 8.9543 0 20 0C31.0457 0 40 8.9543 40 20ZM17.381 14.4275V25.6339L25.8455 20.137L17.381 14.4275ZM15 27.6739C15 27.7007 15.0009 27.7273 15.0026 27.7537C14.9874 27.9995 15.0481 28.2521 15.1926 28.4746C15.5506 29.026 16.2879 29.1827 16.8393 28.8246L28.6039 21.1846C29.1053 20.859 29.2804 20.2197 29.0387 19.6919C28.9557 19.4641 28.8025 19.2595 28.5862 19.1136L16.8592 11.2036C16.3141 10.836 15.5742 10.9798 15.2065 11.5249C15.0469 11.7615 14.9837 12.0348 15.0078 12.2985C15.0027 12.3435 15 12.3894 15 12.4358V27.6739Z" fill="#353535"/>
</svg>
